<?xml version="1.0" encoding="UTF-8"?>
<svg id="Livello_1" data-name="Livello 1" xmlns="http://www.w3.org/2000/svg" viewBox="0 0 323.47 143.18">
  <defs>
    <style>
      .cls-1 {
        fill: #ef5c48;
      }
    </style>
  </defs>
  <polygon class="cls-1" points="210.37 39.56 189.31 39.56 189.31 27.41 207.25 27.41 207.25 20.09 189.31 20.09 189.31 9.28 210.31 9.28 210.31 1.71 179.97 1.71 179.97 47.06 210.37 47.06 210.37 39.56"/>
  <path class="cls-1" d="M224.26,44.14c2.1,2.37,4.85,3.55,8.25,3.55,4.01,0,7.19-1.56,9.55-4.69,2.36-3.12,3.54-7.28,3.54-12.47v-.47c0-5.4-1.15-9.63-3.46-12.71-2.3-3.07-5.53-4.61-9.69-4.61-3.51,0-6.35,1.31-8.53,3.92l-.31-3.3h-8.35v46.66h9v-15.88ZM224.26,23.3c1.06-2.16,3-3.24,5.82-3.24,2.12,0,3.73.85,4.84,2.55,1.11,1.7,1.67,4.12,1.67,7.26,0,7.04-2.15,10.56-6.45,10.56-2.82,0-4.79-1.11-5.89-3.33v-13.8Z"/>
  <rect class="cls-1" x="251.64" y="13.36" width="9.03" height="33.7"/>
  <path class="cls-1" d="M256.16,9.31c1.52,0,2.74-.44,3.66-1.31.92-.87,1.39-1.99,1.39-3.36s-.46-2.46-1.37-3.33c-.91-.87-2.14-1.31-3.68-1.31s-2.79.44-3.69,1.31-1.35,1.98-1.35,3.33.46,2.49,1.39,3.36c.92.87,2.14,1.31,3.66,1.31Z"/>
  <path class="cls-1" d="M282.26,47.69c2.57,0,4.93-.52,7.05-1.57,2.13-1.05,3.81-2.52,5.03-4.42s1.85-3.99,1.87-6.28h-8.44c-.04,1.52-.58,2.73-1.62,3.64-1.04.91-2.39,1.37-4.05,1.37-2.16,0-3.77-.76-4.83-2.28-1.06-1.52-1.59-4.01-1.59-7.49v-.94c0-3.43.53-5.91,1.6-7.44,1.07-1.53,2.65-2.29,4.75-2.29,1.7,0,3.07.55,4.11,1.64,1.04,1.1,1.58,2.52,1.62,4.27h8.44c-.04-3.99-1.33-7.18-3.88-9.58-2.54-2.4-5.92-3.6-10.14-3.6-4.82,0-8.61,1.55-11.37,4.64s-4.14,7.24-4.14,12.43v.59c0,5.4,1.39,9.63,4.17,12.69,2.78,3.06,6.58,4.59,11.4,4.59Z"/>
  <path class="cls-1" d="M211.66,86.38c-1.34-1.77-3.17-2.94-5.5-3.52,2.03-.79,3.62-2.03,4.77-3.72,1.14-1.69,1.71-3.65,1.71-5.87,0-4.07-1.42-7.16-4.27-9.27-2.85-2.11-7.02-3.16-12.52-3.16h-15.89v45.35h17.63c5.15-.04,9.12-1.18,11.9-3.43,2.78-2.24,4.17-5.54,4.17-9.91,0-2.55-.67-4.71-2.01-6.48ZM189.31,68.41h6.54c2.57,0,4.46.45,5.65,1.35,1.19.9,1.79,2.38,1.79,4.44,0,3.68-2.36,5.56-7.07,5.64h-6.92v-11.43ZM202.47,97.11c-1.24,1.05-2.95,1.57-5.16,1.57h-8v-12.24h8.57c4.3.06,6.45,2.17,6.45,6.32,0,1.85-.62,3.3-1.85,4.35Z"/>
  <path class="cls-1" d="M250.61,89.68l-.06-2.3c-.33-4.78-1.94-8.55-4.81-11.34-2.88-2.78-6.59-4.17-11.14-4.17-3.2,0-6.01.72-8.43,2.15-2.42,1.43-4.27,3.46-5.56,6.07-1.29,2.62-1.93,5.6-1.93,8.94v.4c0,5.36,1.45,9.59,4.35,12.71,2.9,3.11,6.77,4.67,11.63,4.67s8.73-1.56,11.62-4.69c2.89-3.12,4.33-7.27,4.33-12.44ZM239.77,97.04c-1.23,1.67-2.93,2.51-5.11,2.51s-3.97-.85-5.17-2.54c-1.2-1.69-1.81-4.14-1.81-7.35,0-3.6.6-6.25,1.81-7.97,1.2-1.71,2.91-2.57,5.11-2.57s3.95.86,5.17,2.59c1.23,1.73,1.84,4.16,1.84,7.3,0,3.68-.61,6.36-1.84,8.03Z"/>
  <path class="cls-1" d="M286.62,87.37c-.33-4.78-1.94-8.55-4.81-11.34-2.88-2.78-6.59-4.17-11.14-4.17-3.2,0-6.01.72-8.43,2.15-2.42,1.43-4.27,3.46-5.56,6.07-1.29,2.62-1.93,5.6-1.93,8.94v.4c0,5.36,1.45,9.59,4.35,12.71,2.9,3.11,6.77,4.67,11.63,4.67s8.73-1.56,11.62-4.69c2.89-3.12,4.33-7.27,4.33-12.44l-.06-2.3ZM275.84,97.04c-1.23,1.67-2.93,2.51-5.11,2.51s-3.97-.85-5.17-2.54c-1.2-1.69-1.81-4.14-1.81-7.35,0-3.6.6-6.25,1.81-7.97,1.2-1.71,2.91-2.57,5.11-2.57s3.95.86,5.17,2.59c1.23,1.73,1.84,4.16,1.84,7.3,0,3.68-.61,6.36-1.84,8.03Z"/>
  <polygon class="cls-1" points="313.13 106.19 323.47 106.19 310.23 86.53 322.41 72.49 311.6 72.49 302.97 82.61 301.23 84.85 301.23 58.34 292.23 58.34 292.23 106.19 301.23 106.19 301.23 95.91 304.47 92.67 313.13 106.19"/>
  <polygon class="cls-1" points="181.48 120.31 178.51 120.31 178.51 142.66 192.07 142.66 192.07 140.25 181.48 140.25 181.48 120.31"/>
  <rect class="cls-1" x="199.73" y="120.31" width="2.95" height="22.35"/>
  <path class="cls-1" d="M223.44,130.9c1.02-.44,1.83-1.06,2.43-1.86.59-.8.89-1.73.89-2.77,0-1.96-.61-3.45-1.83-4.45-1.22-1-3.05-1.5-5.47-1.5h-7.31v22.35h7.75c2.37,0,4.21-.57,5.51-1.72,1.3-1.15,1.95-2.72,1.95-4.73,0-1.31-.35-2.44-1.05-3.38-.7-.95-1.65-1.59-2.86-1.93ZM215.09,122.72h4.36c1.46,0,2.55.28,3.27.84s1.07,1.45,1.07,2.68c0,1.11-.39,1.98-1.16,2.63-.77.65-1.8.97-3.09.97h-4.45v-7.12ZM223.21,139.18c-.79.71-1.88,1.07-3.25,1.07h-4.87v-8.04h4.91c2.93,0,4.39,1.35,4.39,4.04,0,1.25-.4,2.23-1.19,2.94Z"/>
  <path class="cls-1" d="M249.9,130.67c.75-1.03,1.13-2.25,1.13-3.64,0-2.19-.68-3.86-2.03-5-1.36-1.15-3.29-1.72-5.81-1.72h-7.4v22.35h2.96v-9.04h5.25l4.85,9.04h3.16v-.18l-5.25-9.48c1.34-.51,2.39-1.28,3.14-2.32ZM243.28,131.21h-4.53v-8.49h4.51c1.56,0,2.74.38,3.57,1.12s1.24,1.8,1.24,3.18c0,1.27-.43,2.29-1.3,3.04-.86.76-2.03,1.14-3.49,1.14Z"/>
  <path class="cls-1" d="M265.61,120.31l-8.53,22.35h3.04l2.1-5.85h9.36l2.13,5.85h3.02l-8.55-22.35h-2.58ZM263.11,134.4l3.79-10.45,3.81,10.45h-7.6Z"/>
  <path class="cls-1" d="M297.93,130.67c.75-1.03,1.13-2.25,1.13-3.64,0-2.19-.68-3.86-2.03-5-1.36-1.15-3.29-1.72-5.81-1.72h-7.4v22.35h2.96v-9.04h5.25l4.85,9.04h3.16v-.18l-5.25-9.48c1.34-.51,2.39-1.28,3.14-2.32ZM291.31,131.21h-4.53v-8.49h4.51c1.56,0,2.74.38,3.57,1.12s1.24,1.8,1.24,3.18c0,1.27-.43,2.29-1.3,3.04-.86.76-2.03,1.14-3.49,1.14Z"/>
  <polygon class="cls-1" points="313.35 131.53 307.55 120.31 304.17 120.31 311.88 134.33 311.88 142.66 314.82 142.66 314.82 134.33 322.53 120.31 319.18 120.31 313.35 131.53"/>
  <path class="cls-1" d="M0,143.18h160.06V.67H0v142.51ZM16.15,104.74h7.84v-23.51h-7.84v-7.84h19.61c-5.24-6.96-5.24-16.54,0-23.51h-19.61v-7.84h7.84v-23.51h-7.84v-7.84h97.97c16.06-.08,25.34,18.7,15.67,31.35h19.61v7.84h-7.84v23.51h7.84v7.84h-19.59c9.68,12.72.34,31.43-15.68,31.35h-35.27v23l-15.68-10.45-15.68,10.45v-23h-31.35v-7.84Z"/>
  <path class="cls-1" d="M47.51,89.06h31.35v15.68h35.27c15.58-.63,15.6-22.9,0-23.51H31.83v23.51h15.68v-15.68Z"/>
  <path class="cls-1" d="M114.13,18.52H31.83v23.51h82.3c15.6-.65,15.59-22.87,0-23.51Z"/>
  <path class="cls-1" d="M39.67,61.63c0,6.48,5.27,11.76,11.76,11.76h82.3v-23.51H51.42c-6.48,0-11.76,5.27-11.76,11.76Z"/>
</svg>